<?xml version="1.0" encoding="iso-8859-1"?>
<!-- Generator: Adobe Illustrator 19.0.0, SVG Export Plug-In . SVG Version: 6.00 Build 0)  -->
<svg version="1.1" id="Layer_1" xmlns="http://www.w3.org/2000/svg" xmlns:xlink="http://www.w3.org/1999/xlink" x="0px" y="0px"
	 viewBox="0 0 511.927 511.927" style="enable-background:new 0 0 511.927 511.927;" xml:space="preserve">
<g>
	<g>
		<path d="M362.636,194.839c-5.874,0-10.655,4.772-10.655,10.662c0,5.891,4.781,10.663,10.655,10.663
			c5.905,0,10.671-4.772,10.671-10.663C373.307,199.611,368.541,194.839,362.636,194.839z"/>
	</g>
</g>
<g>
	<g>
		<path d="M475.761,273.805c-13.326-20.005-26.793-38.511-32.229-45.9c0.406-5.116,0.734-14.217-0.406-26.52
			c-0.922-9.78-10.608-35.565-22.716-61.351c20.716-7.577,37.276-17.881,49.274-30.668c9.107-9.702,15.623-21.005,18.811-32.691
			c2.499-9.115,2.187-15.528,2.155-16.231c-0.266-4.078-2.843-7.64-6.624-9.187c-3.781-1.555-8.124-0.797-11.154,1.93
			c-0.344,0.297-33.402,29.504-79.803,34.394c-0.53,0.055-1.093,0.102-1.655,0.156c-2.155-3.172-4.312-6.116-6.405-8.819
			c-12.076-15.506-22.575-22.731-33.059-22.731c-15.045,0-29.574,10.062-43.244,29.91c-1.437,0.141-2.749,0.367-3.999,0.688
			c-9.483,2.422-17.091,7.827-21.981,15.639c-0.859,1.352-1.594,2.757-2.25,4.21c-51.01-15.891-173.492-51.355-250.607-51.355
			c-7.312,0-14.146,0.32-20.311,0.969c-2.929,0.305-5.601,1.805-7.382,4.141c-1.78,2.343-2.515,5.319-2.03,8.218l63.991,383.954
			c0.609,3.688,3.101,6.781,6.577,8.156c1.273,0.5,2.608,0.75,3.937,0.75c2.289,0,4.563-0.734,6.444-2.156l118.484-89.77
			c-1.938,10.561-4.578,17.467-6.21,20.342c-1.859,2.906-2.117,6.436-0.805,9.654c1.312,3.219,4.194,5.469,7.585,6.25
			c0.89,0.188,7.975,1.686,23.684,2.186v0.156c0,5.906,4.773,10.688,10.663,10.688c5.89,0,10.662-4.781,10.662-10.688v-0.156
			c15.71-0.5,22.794-1.998,23.685-2.186c3.398-0.781,6.273-3.031,7.585-6.25c1.313-3.219,1.063-6.748-0.813-9.654
			c-2.14-3.781-6.046-14.592-7.796-31.512c41.604,38.666,108.376,42.307,124.405,42.604c9.468,5.719,31.12,17.842,44.337,17.842
			c13.654,0,45.775-7.922,49.385-8.813c2.813-0.719,5.218-2.531,6.67-5.029c0.781-1.375,19.311-33.887,19.311-59.305
			C511.928,337.514,507.818,321.984,475.761,273.805z M351.949,77.519c1.703,0,6.469,2.742,13.904,11.679
			c-1.063,0.008-2.108,0.023-3.155,0.023c-11.202,0-20.403-0.695-28.168-1.445C340.795,81.081,346.763,77.519,351.949,77.519z
			 M309.986,107.444c0.25-0.063,0.969-0.203,2.641-0.203c3.047,0,7.265,0.453,12.607,1.023c9.093,0.961,21.528,2.281,37.464,2.281
			c10.562,0,21.528-0.586,32.62-1.758c26.277-2.766,48.51-12.068,64.523-20.981c-1.75,2.484-3.844,5.03-6.313,7.601
			c-31.043,32.261-94.455,39.033-142.168,39.033c-10.436,0-12.295-8.412-12.623-10.99
			C298.004,117.584,300.52,109.874,309.986,107.444z M223.967,112.248c7.515,2.102,14.654,4.149,21.333,6.094V317.33
			c-4.749,1.406-10.068,3.5-15.021,5.654c-2.265,0.188-4.366,0.5-6.312,0.938V112.248z M202.633,340.451L82.276,431.658
			L23.119,76.714c2.188-0.07,4.438-0.102,6.75-0.102c38.588,0,96.908,9.937,168.648,28.746c1.383,0.359,2.749,0.727,4.116,1.086
			V340.451z M234.497,386.82c-6.952,0-12.568-0.219-16.967-0.484c2.5-8.436,4.983-20.67,5.679-37.15
			c0.133-3.109,4.461-5.047,11.288-5.047c6.827,0,11.154,1.938,11.287,5.047c0.695,16.48,3.18,28.715,5.679,37.15
			C247.066,386.602,241.449,386.82,234.497,386.82z M474.419,390.819c-12.983,3.029-30.793,6.654-37.855,6.654
			c-5.687,0.002-22.591-8.121-35.089-15.84c-3.266-2.672-11.218-9.717-15.779-15.998c-3.469-4.748-10.124-5.811-14.904-2.342
			c-4.594,3.326-5.719,9.654-2.688,14.373c-8.811-1.188-19.122-3.047-29.824-6c-34.604-9.545-58.695-25.902-71.654-48.588V124.716
			c4.133,1.266,7.898,2.429,11.288,3.491c2.999,16.334,16.466,27.566,33.448,27.566c33.902,0,63.555-3.171,88.426-9.436
			c13.092,27.441,21.59,51.586,22.09,57.031c1.531,16.333,0.094,25.762,0.094,25.809c-0.469,2.867,0.25,5.796,1.984,8.124
			c0.172,0.227,17.201,23.036,34.043,48.329c14.045,21.107,22.027,35.059,26.59,44.166c-0.563,0.281-1.141,0.563-1.719,0.859
			c-10.342,5.326-17.232,12.811-19.903,21.668C459.405,364.073,463.28,376.993,474.419,390.819z M485.494,369.307
			c-2.219-4.266-2.969-7.92-2.125-10.779c0.875-2.969,3.641-5.516,6.858-7.547C489.493,356.793,487.697,363.184,485.494,369.307z"/>
	</g>
</g>
<g>
</g>
<g>
</g>
<g>
</g>
<g>
</g>
<g>
</g>
<g>
</g>
<g>
</g>
<g>
</g>
<g>
</g>
<g>
</g>
<g>
</g>
<g>
</g>
<g>
</g>
<g>
</g>
<g>
</g>
</svg>
